<svg xmlns="http://www.w3.org/2000/svg">

  <symbol id="truck" viewBox="0 0 24 24">
    <path d="M8.965 18a3.5 3.5 0 0 1-6.93 0H1V6a1 1 0 0 1 1-1h14a1 1 0 0 1 1 1v2h3l3 4.056V18h-2.035a3.5 3.5 0 0 1-6.93 0h-5.07zM15 7H3v8.05a3.5 3.5 0 0 1 5.663.95h5.674c.168-.353.393-.674.663-.95V7zm2 6h4v-.285L18.992 10H17v3zm.5 6a1.5 1.5 0 1 0 0-3.001 1.5 1.5 0 0 0 0 3.001zM7 17.5a1.5 1.5 0 1 0-3 0 1.5 1.5 0 0 0 3 0z"/>
  </symbol>

  <symbol id="account" viewBox="0 0 24 24">
    <path fill="none" d="M0 0h24v24H0z"/><path d="M12 22C6.477 22 2 17.523 2 12S6.477 2 12 2s10 4.477 10 10-4.477 10-10 10zm-4.987-3.744A7.966 7.966 0 0 0 12 20c1.97 0 3.773-.712 5.167-1.892A6.979 6.979 0 0 0 12.16 16a6.981 6.981 0 0 0-5.147 2.256zM5.616 16.82A8.975 8.975 0 0 1 12.16 14a8.972 8.972 0 0 1 6.362 2.634 8 8 0 1 0-12.906.187zM12 13a4 4 0 1 1 0-8 4 4 0 0 1 0 8zm0-2a2 2 0 1 0 0-4 2 2 0 0 0 0 4z"/>
  </symbol>

  <symbol id="edit" viewBox="0 0 24 24">
    <path fill="none" d="M0 0h24v24H0z"/><path d="M15.728 9.686l-1.414-1.414L5 17.586V19h1.414l9.314-9.314zm1.414-1.414l1.414-1.414-1.414-1.414-1.414 1.414 1.414 1.414zM7.242 21H3v-4.243L16.435 3.322a1 1 0 0 1 1.414 0l2.829 2.829a1 1 0 0 1 0 1.414L7.243 21z"/>
  </symbol>

  <symbol id="delete" viewBox="0 0 24 24">
    <path fill="none" d="M0 0h24v24H0z"/><path d="M17 6h5v2h-2v13a1 1 0 0 1-1 1H5a1 1 0 0 1-1-1V8H2V6h5V3a1 1 0 0 1 1-1h8a1 1 0 0 1 1 1v3zm1 2H6v12h12V8zm-9 3h2v6H9v-6zm4 0h2v6h-2v-6zM9 4v2h6V4H9z"/>
  </symbol>

  <symbol id="exclamation" viewBox="0 0 24 24">
    <path fill="none" d="M0 0h24v24H0z"/><path d="M12 22C6.477 22 2 17.523 2 12S6.477 2 12 2s10 4.477 10 10-4.477 10-10 10zm0-2a8 8 0 1 0 0-16 8 8 0 0 0 0 16zm-1-5h2v2h-2v-2zm0-8h2v6h-2V7z"/>
  </symbol>

  <symbol id="logout" viewBox="0 0 24 24">
    <path fill="none" d="M0 0h24v24H0z"/><path d="M5 11h8v2H5v3l-5-4 5-4v3zm-1 7h2.708a8 8 0 1 0 0-12H4A9.985 9.985 0 0 1 12 2c5.523 0 10 4.477 10 10s-4.477 10-10 10a9.985 9.985 0 0 1-8-4z"/>
  </symbol>

  <symbol id="home" viewBox="0 0 24 24">
    <path fill="none" d="M0 0h24v24H0z"/><path d="M19 21H5a1 1 0 0 1-1-1v-9H1l10.327-9.388a1 1 0 0 1 1.346 0L23 11h-3v9a1 1 0 0 1-1 1zm-6-2h5V9.157l-6-5.454-6 5.454V19h5v-6h2v6z"/>
  </symbol>

  <symbol id="hand-coin" viewBox="0 0 24 24">
    <path fill="none" d="M0 0h24v24H0z"/><path d="M5 9a1 1 0 0 1 1 1 6.97 6.97 0 0 1 4.33 1.5h2.17c1.333 0 2.53.58 3.354 1.5H19a5 5 0 0 1 4.516 2.851C21.151 18.972 17.322 21 13 21c-2.79 0-5.15-.603-7.06-1.658A.998.998 0 0 1 5 20H2a1 1 0 0 1-1-1v-9a1 1 0 0 1 1-1h3zm1.001 3L6 17.022l.045.032C7.84 18.314 10.178 19 13 19c3.004 0 5.799-1.156 7.835-3.13l.133-.133-.12-.1a2.994 2.994 0 0 0-1.643-.63L19 15h-2.111c.072.322.111.656.111 1v1H8v-2l6.79-.001-.034-.078a2.501 2.501 0 0 0-2.092-1.416L12.5 13.5H9.57A4.985 4.985 0 0 0 6.002 12zM4 11H3v7h1v-7zm14-6a3 3 0 1 1 0 6 3 3 0 0 1 0-6zm0 2a1 1 0 1 0 0 2 1 1 0 0 0 0-2zm-7-5a3 3 0 1 1 0 6 3 3 0 0 1 0-6zm0 2a1 1 0 1 0 0 2 1 1 0 0 0 0-2z"/>
  </symbol>

  <symbol id="group" viewBox="0 0 24 24">
    <path fill="none" d="M0 0h24v24H0z"/><path d="M2 22a8 8 0 1 1 16 0h-2a6 6 0 1 0-12 0H2zm8-9c-3.315 0-6-2.685-6-6s2.685-6 6-6 6 2.685 6 6-2.685 6-6 6zm0-2c2.21 0 4-1.79 4-4s-1.79-4-4-4-4 1.79-4 4 1.79 4 4 4zm8.284 3.703A8.002 8.002 0 0 1 23 22h-2a6.001 6.001 0 0 0-3.537-5.473l.82-1.824zm-.688-11.29A5.5 5.5 0 0 1 21 8.5a5.499 5.499 0 0 1-5 5.478v-2.013a3.5 3.5 0 0 0 1.041-6.609l.555-1.943z"/>
  </symbol>

  <symbol id="route" viewBox="0 0 24 24">
    <path fill="none" d="M0 0h24v24H0z"/><path d="M4 15V8.5a4.5 4.5 0 0 1 9 0v7a2.5 2.5 0 1 0 5 0V8.83a3.001 3.001 0 1 1 2 0v6.67a4.5 4.5 0 1 1-9 0v-7a2.5 2.5 0 0 0-5 0V15h3l-4 5-4-5h3zm15-8a1 1 0 1 0 0-2 1 1 0 0 0 0 2z"/>
  </symbol>

  <symbol id="fingerprint" viewBox="0 0 24 24">
    <path d="M12 1a9 9 0 0 1 9 9v4a9 9 0 0 1-12.092 8.455c.128-.177.251-.357.369-.542l.17-.28a10.918 10.918 0 0 0 1.55-5.345L11 16V9h2v7a12.96 12.96 0 0 1-.997 5.001 7.026 7.026 0 0 0 2.27-.378c.442-1.361.693-2.808.724-4.31L15 16v-3.001h2V16c0 1.088-.102 2.153-.298 3.185a6.978 6.978 0 0 0 2.294-4.944L19 14v-4A7 7 0 0 0 7.808 4.394L6.383 2.968A8.962 8.962 0 0 1 12 1zm-5 9a5 5 0 1 1 10 0v1h-2v-1a3 3 0 0 0-5.995-.176L9 10v6c0 1.567-.4 3.04-1.104 4.323l-.024.04c-.23.414-.491.808-.782 1.179a9.03 9.03 0 0 1-1.237-.97l-.309-.3A8.97 8.97 0 0 1 3 14v-4c0-2.125.736-4.078 1.968-5.617l1.426 1.425a6.966 6.966 0 0 0-1.39 3.951L5 10v4c0 1.675.588 3.212 1.57 4.417a6.91 6.91 0 0 0 .426-2.176L7 16v-6z"/>
  </symbol>

  <symbol id="gift" viewBox="0 0 24 24">
    <path fill="none" d="M0 0h24v24H0z"/><path d="M15 2a4 4 0 0 1 3.464 6.001L23 8v2h-2v10a1 1 0 0 1-1 1H4a1 1 0 0 1-1-1V10H1V8l4.536.001A4 4 0 0 1 12 3.355 3.983 3.983 0 0 1 15 2zm-4 8H5v9h6v-9zm8 0h-6v9h6v-9zM9 4a2 2 0 0 0-.15 3.995L9 8h2V6a2 2 0 0 0-1.697-1.977l-.154-.018L9 4zm6 0a2 2 0 0 0-1.995 1.85L13 6v2h2a2 2 0 0 0 1.995-1.85L17 6a2 2 0 0 0-2-2z"/>
  </symbol>

  <symbol id="scale" viewBox="0 0 24 24">
    <path fill="none" d="M0 0H24V24H0z"/><path d="M13 2v1.278l5 1.668 3.632-1.21.633 1.896-3.032 1.011 3.096 8.512C21.237 16.292 19.7 17 18 17c-1.701 0-3.237-.708-4.329-1.845l3.094-8.512L13 5.387V19H17v2H7v-2h4V5.387L7.232 6.643l3.096 8.512C9.237 16.292 7.7 17 6 17c-1.701 0-3.237-.708-4.329-1.845l3.094-8.512-3.03-1.01.633-1.898L6 4.945l5-1.667V2h2zm5 7.103l-1.958 5.386c.587.331 1.257.511 1.958.511.7 0 1.37-.18 1.958-.51L18 9.102zm-12 0l-1.958 5.386C4.629 14.82 5.299 15 6 15c.7 0 1.37-.18 1.958-.51L6 9.102z"/>
  </symbol>

  <symbol id="draft" viewBox="0 0 24 24">
    <path fill="none" d="M0 0L24 0 24 24 0 24z"/><path d="M20 2c.552 0 1 .448 1 1v3.757l-2 2V4H5v16h14v-2.758l2-2V21c0 .552-.448 1-1 1H4c-.552 0-1-.448-1-1V3c0-.552.448-1 1-1h16zm1.778 6.808l1.414 1.414L15.414 18l-1.416-.002.002-1.412 7.778-7.778zM13 12v2H8v-2h5zm3-4v2H8V8h8z"/>
  </symbol>

  <symbol id="file-info" viewBox="0 0 24 24">
    <path fill="none" d="M0 0h24v24H0z"/><path d="M15 4H5v16h14V8h-4V4zM3 2.992C3 2.444 3.447 2 3.999 2H16l5 5v13.993A1 1 0 0 1 20.007 22H3.993A1 1 0 0 1 3 21.008V2.992zM11 11h2v6h-2v-6zm0-4h2v2h-2V7z"/>
  </symbol>

  <symbol id="clockwise" viewBox="0 0 24 24">
    <path fill="none" d="M0 0h24v24H0z"/><path d="M10.586 4L8.757 2.172 10.172.757 14.414 5l-4.242 4.243-1.415-1.415L10.586 6H8a3 3 0 0 0-3 3v4H3V9a5 5 0 0 1 5-5h2.586zM9 11a1 1 0 0 1 1-1h10a1 1 0 0 1 1 1v10a1 1 0 0 1-1 1H10a1 1 0 0 1-1-1V11zm2 1v8h8v-8h-8z"/>
  </symbol>

  <symbol id="anticlockwise" viewBox="0 0 24 24">
    <path fill="none" d="M0 0h24v24H0z"/><path d="M13.414 6l1.829 1.828-1.415 1.415L9.586 5 13.828.757l1.415 1.415L13.414 4H16a5 5 0 0 1 5 5v4h-2V9a3 3 0 0 0-3-3h-2.586zM15 11v10a1 1 0 0 1-1 1H4a1 1 0 0 1-1-1V11a1 1 0 0 1 1-1h10a1 1 0 0 1 1 1zm-2 1H5v8h8v-8z"/>
  </symbol>
  
  <symbol id="menu" viewBox="0 0 24 24">
    <path d="M3 4h18v2H3V4zm0 7h18v2H3v-2zm0 7h18v2H3v-2z"/>
  </symbol>

  <symbol id="shopping-basket" viewBox="0 0 24 24">
    <path fill="none" d="M0 0h24v24H0z"/><path d="M12 2a6 6 0 0 1 6 6v1h4v2h-1.167l-.757 9.083a1 1 0 0 1-.996.917H4.92a1 1 0 0 1-.996-.917L3.166 11H2V9h4V8a6 6 0 0 1 6-6zm6.826 9H5.173l.667 8h12.319l.667-8zM13 13v4h-2v-4h2zm-4 0v4H7v-4h2zm8 0v4h-2v-4h2zm-5-9a4 4 0 0 0-3.995 3.8L8 8v1h8V8a4 4 0 0 0-3.8-3.995L12 4z"/>
  </symbol>

  <symbol id="bank-card" viewBox="0 0 24 24">
    <path fill="none" d="M0 0h24v24H0z"/><path d="M3 3h18a1 1 0 0 1 1 1v16a1 1 0 0 1-1 1H3a1 1 0 0 1-1-1V4a1 1 0 0 1 1-1zm17 8H4v8h16v-8zm0-2V5H4v4h16zm-6 6h4v2h-4v-2z"/>
  </symbol>

  <symbol id="tag" viewBox="0 0 24 24">
    <path fill="none" d="M0 0h24v24H0z"/><path d="M10.9 2.1l9.899 1.415 1.414 9.9-9.192 9.192a1 1 0 0 1-1.414 0l-9.9-9.9a1 1 0 0 1 0-1.414L10.9 2.1zm.707 2.122L3.828 12l8.486 8.485 7.778-7.778-1.06-7.425-7.425-1.06zm2.12 6.364a2 2 0 1 1 2.83-2.829 2 2 0 0 1-2.83 2.829z"/>
  </symbol>

  <symbol id="flag" viewBox="0 0 24 24">
    <path fill="none" d="M0 0h24v24H0z"/><path d="M5 16v6H3V3h9.382a1 1 0 0 1 .894.553L14 5h6a1 1 0 0 1 1 1v11a1 1 0 0 1-1 1h-6.382a1 1 0 0 1-.894-.553L12 16H5zM5 5v9h8.236l1 2H19V7h-6.236l-1-2H5z"/>
  </symbol>

</svg>